# xmcd
#
# Track frame offsets:
#	150
#	12748
#	25404
#	44456
#	55959
#	66584
#	79013
#	94499
#	107125
#	118914
#	131117
#	145951
#	157972
#	169703
#	182630
#
# Disc length: 2746 seconds
#
# Revision: 0
# Processed by: cddbd v1.5.2PL0 Copyright (c) Steve Scherf et al.
# Submitted via: audiograbber 1.83.01
#
DISCID=df0ab80f
DTITLE=Various Artist - The Soul Story: Hard To Find Hits - Disc 1
DYEAR=2006
DGENRE=Soul
TTITLE0=Tyrone Davis - Can I Change My Mind
TTITLE1=The Isley Brothers - It's Your Thing
TTITLE2=The Friends of Distinction - Going In Circles
TTITLE3=Mel and Tim - Backfield In Motion
TTITLE4=Barbara Lynn - You'll Lose A Good Thing
TTITLE5=The Honey Cone - Want Ads
TTITLE6=Garnet Mimms and the Enchanters - Cry Baby
TTITLE7=Lee Dorsey - Working In The Coal Mine
TTITLE8=The Intruders - Cowboys to Girls
TTITLE9=Little Willie John - Fever
TTITLE10=The Delfonics - Hey! Love
TTITLE11=Cliff Nobles - The Horse
TTITLE12=Peaches and Herb - Close Your Eyes
TTITLE13=Don Gardner and Dee Dee Ford - I Need Your Loving
TTITLE14=Edwin Hawkins Singers - Oh, Happy Day
EXTD=
EXTT0=
EXTT1=
EXTT2=
EXTT3=
EXTT4=
EXTT5=
EXTT6=
EXTT7=
EXTT8=
EXTT9=
EXTT10=
EXTT11=
EXTT12=
EXTT13=
EXTT14=
PLAYORDER=
